<svg xmlns="http://www.w3.org/2000/svg" xmlns:xlink="http://www.w3.org/1999/xlink" width="500" zoomAndPan="magnify" viewBox="0 0 375 374.999991" height="500" preserveAspectRatio="xMidYMid meet" version="1.0"><defs><g/><clipPath id="7d7a0a0b71"><path d="M 108.589844 88.078125 L 266.089844 88.078125 L 266.089844 225.328125 L 108.589844 225.328125 Z M 108.589844 88.078125 " clip-rule="nonzero"/></clipPath></defs><g fill="#ffffff" fill-opacity="1"><g transform="translate(135.365579, 268.021692)"><g><path d="M 13.457031 -20.058594 L 9.96875 -7.355469 L 6.503906 -20.058594 C 5.699219 -22.644531 2.785156 -24.027344 -0.0234375 -23.148438 L 6.175781 -3.113281 C 6.425781 -2.257812 6.929688 -1.554688 7.558594 -1.003906 C 8.234375 -0.425781 9.039062 0 9.96875 0 C 10.894531 0 11.726562 -0.425781 12.402344 -1.003906 C 13.03125 -1.554688 13.507812 -2.257812 13.785156 -3.113281 L 19.984375 -23.148438 C 17.171875 -24.027344 14.261719 -22.644531 13.457031 -20.058594 Z M 13.457031 -20.058594 "/></g></g></g><g fill="#ffffff" fill-opacity="1"><g transform="translate(155.370727, 268.021692)"><g><path d="M 6.453125 -9.316406 L 11.875 -9.316406 L 13.105469 -14.488281 L 6.453125 -14.488281 L 6.453125 -18.078125 L 11.5 -18.078125 C 14.5625 -18.078125 16.59375 -20.5625 16.59375 -23.652344 L 6.402344 -23.652344 C 3.414062 -23.652344 0.980469 -21.214844 0.980469 -18.203125 L 0.980469 -5.324219 C 0.980469 -2.359375 3.339844 0 6.300781 0 L 9.941406 0 C 13.003906 0 15.390625 -2.484375 15.390625 -5.574219 L 6.453125 -5.574219 Z M 6.453125 -9.316406 "/></g></g></g><g fill="#ffffff" fill-opacity="1"><g transform="translate(172.966221, 268.021692)"><g><path d="M 15.238281 -11.597656 C 13.933594 -13.332031 11.851562 -14.460938 9.515625 -14.460938 L 7.832031 -14.460938 C 6.855469 -14.460938 6.050781 -15.265625 6.050781 -16.242188 L 6.050781 -16.417969 C 6.050781 -17.398438 6.855469 -18.203125 7.832031 -18.203125 L 10.242188 -18.203125 C 13.03125 -18.203125 15.289062 -20.539062 15.289062 -23.574219 L 7.832031 -23.574219 C 3.890625 -23.574219 0.679688 -20.363281 0.679688 -16.417969 L 0.679688 -16.242188 C 0.679688 -14.636719 1.207031 -13.15625 2.109375 -11.949219 C 3.414062 -10.21875 5.472656 -9.089844 7.832031 -9.089844 L 9.515625 -9.089844 C 10.46875 -9.089844 11.296875 -8.285156 11.296875 -7.332031 L 11.296875 -7.128906 C 11.296875 -6.175781 10.46875 -5.347656 9.515625 -5.347656 L 6.503906 -5.347656 C 3.714844 -5.347656 1.457031 -3.039062 1.457031 0 L 9.515625 0 C 13.457031 0 16.671875 -3.1875 16.671875 -7.128906 L 16.671875 -7.332031 C 16.671875 -8.914062 16.144531 -10.394531 15.238281 -11.597656 Z M 15.238281 -11.597656 "/></g></g></g><g fill="#ffffff" fill-opacity="1"><g transform="translate(190.059707, 268.021692)"><g><path d="M 1.253906 -18.605469 L 1.253906 0.101562 C 4.292969 0.101562 6.730469 -2.160156 6.730469 -4.921875 L 6.730469 -23.625 C 3.714844 -23.625 1.253906 -21.367188 1.253906 -18.605469 Z M 1.253906 -18.605469 "/></g></g></g><g fill="#ffffff" fill-opacity="1"><g transform="translate(198.116988, 268.021692)"><g><path d="M 4.945312 -23.476562 C 2.132812 -23.476562 -0.125 -21.390625 -0.125 -18.351562 L 6.425781 -18.351562 L 6.425781 0 C 9.464844 0 11.925781 -2.257812 11.925781 -5.046875 L 11.925781 -18.351562 L 13.40625 -18.351562 C 16.21875 -18.351562 18.480469 -20.4375 18.480469 -23.476562 Z M 4.945312 -23.476562 "/></g></g></g><g fill="#ffffff" fill-opacity="1"><g transform="translate(216.5157, 268.021692)"><g><path d="M 14.863281 -20.5625 L 11.800781 -14.160156 L 8.710938 -20.5625 C 7.457031 -23.171875 4.117188 -24.480469 1.253906 -23.097656 L 8.6875 -7.707031 L 5.046875 -0.101562 C 7.910156 1.28125 10.71875 0.0234375 11.976562 -2.609375 L 21.792969 -23.046875 C 18.957031 -24.429688 16.117188 -23.171875 14.863281 -20.5625 Z M 14.863281 -20.5625 "/></g></g></g><g fill="#ffffff" fill-opacity="1"><g transform="translate(137.263812, 284.079019)"><g><path d="M 5.84375 -9.78125 C 4.550781 -9.78125 3.535156 -9.363281 2.796875 -8.53125 C 2.054688 -7.707031 1.6875 -6.582031 1.6875 -5.15625 C 1.6875 -3.6875 2.035156 -2.546875 2.734375 -1.734375 C 3.429688 -0.921875 4.429688 -0.515625 5.734375 -0.515625 C 6.585938 -0.515625 7.378906 -0.625 8.109375 -0.84375 L 8.109375 -0.21875 C 7.421875 0.0195312 6.570312 0.140625 5.5625 0.140625 C 4.113281 0.140625 2.972656 -0.320312 2.140625 -1.25 C 1.316406 -2.1875 0.90625 -3.492188 0.90625 -5.171875 C 0.90625 -6.210938 1.101562 -7.128906 1.5 -7.921875 C 1.894531 -8.722656 2.460938 -9.335938 3.203125 -9.765625 C 3.953125 -10.203125 4.816406 -10.421875 5.796875 -10.421875 C 6.796875 -10.421875 7.691406 -10.234375 8.484375 -9.859375 L 8.203125 -9.21875 C 7.453125 -9.59375 6.664062 -9.78125 5.84375 -9.78125 Z M 5.84375 -9.78125 "/></g></g></g><g fill="#ffffff" fill-opacity="1"><g transform="translate(151.771261, 284.079019)"><g><path d="M 2.171875 -4.46875 L 2.171875 0 L 1.453125 0 L 1.453125 -10.265625 L 3.90625 -10.265625 C 5.175781 -10.265625 6.113281 -10.03125 6.71875 -9.5625 C 7.332031 -9.09375 7.640625 -8.382812 7.640625 -7.4375 C 7.640625 -6.75 7.457031 -6.164062 7.09375 -5.6875 C 6.726562 -5.21875 6.175781 -4.882812 5.4375 -4.6875 L 8.234375 0 L 7.375 0 L 4.71875 -4.46875 Z M 2.171875 -5.09375 L 4.125 -5.09375 C 5 -5.09375 5.671875 -5.285156 6.140625 -5.671875 C 6.617188 -6.054688 6.859375 -6.628906 6.859375 -7.390625 C 6.859375 -8.171875 6.625 -8.738281 6.15625 -9.09375 C 5.6875 -9.445312 4.925781 -9.625 3.875 -9.625 L 2.171875 -9.625 Z M 2.171875 -5.09375 "/></g></g></g><g fill="#ffffff" fill-opacity="1"><g transform="translate(165.892343, 284.079019)"><g><path d="M 7.0625 0 L 1.453125 0 L 1.453125 -10.265625 L 7.0625 -10.265625 L 7.0625 -9.609375 L 2.171875 -9.609375 L 2.171875 -5.734375 L 6.796875 -5.734375 L 6.796875 -5.0625 L 2.171875 -5.0625 L 2.171875 -0.65625 L 7.0625 -0.65625 Z M 7.0625 0 "/></g></g></g><g fill="#ffffff" fill-opacity="1"><g transform="translate(179.402261, 284.079019)"><g><path d="M 6.40625 -3.625 L 2.234375 -3.625 L 0.796875 0 L 0 0 L 4.125 -10.3125 L 4.59375 -10.3125 L 8.640625 0 L 7.828125 0 Z M 2.484375 -4.265625 L 6.15625 -4.265625 L 4.765625 -7.96875 C 4.648438 -8.257812 4.507812 -8.664062 4.34375 -9.1875 C 4.21875 -8.738281 4.078125 -8.332031 3.921875 -7.96875 Z M 2.484375 -4.265625 "/></g></g></g><g fill="#ffffff" fill-opacity="1"><g transform="translate(193.607642, 284.079019)"><g><path d="M 4.125 0 L 3.40625 0 L 3.40625 -9.59375 L 0.0625 -9.59375 L 0.0625 -10.265625 L 7.46875 -10.265625 L 7.46875 -9.59375 L 4.125 -9.59375 Z M 4.125 0 "/></g></g></g><g fill="#ffffff" fill-opacity="1"><g transform="translate(206.717145, 284.079019)"><g><path d="M 1.453125 0 L 1.453125 -10.265625 L 2.171875 -10.265625 L 2.171875 0 Z M 1.453125 0 "/></g></g></g><g fill="#ffffff" fill-opacity="1"><g transform="translate(215.913794, 284.079019)"><g><path d="M 7.53125 -10.265625 L 8.3125 -10.265625 L 4.46875 0 L 3.828125 0 L 0 -10.265625 L 0.765625 -10.265625 L 3.359375 -3.28125 C 3.742188 -2.226562 4.003906 -1.4375 4.140625 -0.90625 C 4.234375 -1.257812 4.421875 -1.804688 4.703125 -2.546875 Z M 7.53125 -10.265625 "/></g></g></g><g fill="#ffffff" fill-opacity="1"><g transform="translate(229.789008, 284.079019)"><g><path d="M 7.0625 0 L 1.453125 0 L 1.453125 -10.265625 L 7.0625 -10.265625 L 7.0625 -9.609375 L 2.171875 -9.609375 L 2.171875 -5.734375 L 6.796875 -5.734375 L 6.796875 -5.0625 L 2.171875 -5.0625 L 2.171875 -0.65625 L 7.0625 -0.65625 Z M 7.0625 0 "/></g></g></g><g clip-path="url(#7d7a0a0b71)"><path fill="#38b6ff" d="M 239.832031 88.1875 C 239.65625 88.425781 239.480469 88.679688 239.320312 88.96875 C 223.664062 116.347656 207.945312 143.6875 192.226562 171.019531 C 191.160156 172.867188 190.109375 174.710938 189.042969 176.554688 C 188.65625 177.222656 188.171875 177.832031 187.535156 178.753906 C 174.265625 155.667969 161.203125 132.953125 147.964844 109.921875 L 173.953125 109.921875 C 173.632812 110.585938 173.472656 110.988281 173.261719 111.363281 C 170.703125 115.855469 168.171875 120.363281 165.570312 124.832031 L 178.929688 147.976562 C 190.484375 127.894531 201.832031 108.152344 213.316406 88.1875 L 108.589844 88.1875 L 121.472656 110.515625 C 121.773438 110.8125 122.046875 111.183594 122.308594 111.648438 C 130.351562 125.746094 138.449219 139.828125 146.605469 153.859375 C 146.824219 154.234375 146.980469 154.59375 147.082031 154.925781 C 147.089844 154.957031 147.101562 154.988281 147.105469 155.023438 L 161.054688 179.183594 C 161.054688 179.175781 161.058594 179.175781 161.058594 179.171875 C 161.066406 179.171875 161.066406 179.164062 161.066406 179.164062 C 164.117188 184.457031 167.136719 189.699219 170.15625 194.933594 L 175.585938 204.34375 L 187.636719 225.246094 C 188.492188 223.785156 189.046875 222.835938 189.597656 221.878906 C 193.304688 215.433594 197.015625 208.980469 200.71875 202.535156 L 200.894531 202.234375 L 266.074219 88.1875 Z M 239.832031 88.1875 " fill-opacity="1" fill-rule="nonzero"/></g></svg>