<svg xmlns="http://www.w3.org/2000/svg" xmlns:xlink="http://www.w3.org/1999/xlink" width="500" zoomAndPan="magnify" viewBox="0 0 375 374.999991" height="500" preserveAspectRatio="xMidYMid meet" version="1.0"><defs><clipPath id="a60411bdad"><path d="M 108.589844 88.078125 L 266.089844 88.078125 L 266.089844 225.328125 L 108.589844 225.328125 Z M 108.589844 88.078125 " clip-rule="nonzero"/></clipPath></defs><g clip-path="url(#a60411bdad)"><path fill="#2704ff" d="M 239.832031 88.1875 C 239.65625 88.425781 239.480469 88.679688 239.320312 88.96875 C 223.664062 116.347656 207.945312 143.6875 192.226562 171.019531 C 191.160156 172.867188 190.109375 174.710938 189.042969 176.554688 C 188.65625 177.222656 188.171875 177.832031 187.535156 178.753906 C 174.265625 155.667969 161.203125 132.953125 147.964844 109.921875 L 173.953125 109.921875 C 173.632812 110.585938 173.472656 110.988281 173.261719 111.363281 C 170.703125 115.855469 168.171875 120.363281 165.570312 124.832031 L 178.929688 147.976562 C 190.484375 127.894531 201.832031 108.152344 213.316406 88.1875 L 108.589844 88.1875 L 121.472656 110.515625 C 121.773438 110.8125 122.046875 111.183594 122.308594 111.648438 C 130.351562 125.746094 138.449219 139.828125 146.605469 153.859375 C 146.824219 154.234375 146.980469 154.59375 147.082031 154.925781 C 147.089844 154.957031 147.101562 154.988281 147.105469 155.023438 L 161.054688 179.183594 C 161.054688 179.175781 161.058594 179.175781 161.058594 179.171875 C 161.066406 179.171875 161.066406 179.164062 161.066406 179.164062 C 164.117188 184.457031 167.136719 189.699219 170.15625 194.933594 L 175.585938 204.34375 L 187.636719 225.246094 C 188.492188 223.785156 189.046875 222.835938 189.597656 221.878906 C 193.304688 215.433594 197.015625 208.980469 200.71875 202.535156 L 200.894531 202.234375 L 266.074219 88.1875 Z M 239.832031 88.1875 " fill-opacity="1" fill-rule="nonzero"/></g></svg>