<svg id="visual" viewBox="0 0 960 540" width="960" height="540" xmlns="http://www.w3.org/2000/svg" xmlns:xlink="http://www.w3.org/1999/xlink" version="1.1"><rect x="0" y="0" width="960" height="540" fill="#000211"></rect><path d="M0 321L17.8 307.8C35.7 294.7 71.3 268.3 106.8 257.5C142.3 246.7 177.7 251.3 213.2 256.7C248.7 262 284.3 268 320 279.3C355.7 290.7 391.3 307.3 426.8 317C462.3 326.7 497.7 329.3 533.2 327.3C568.7 325.3 604.3 318.7 640 304C675.7 289.3 711.3 266.7 746.8 263.2C782.3 259.7 817.7 275.3 853.2 282.5C888.7 289.7 924.3 288.3 942.2 287.7L960 287L960 541L942.2 541C924.3 541 888.7 541 853.2 541C817.7 541 782.3 541 746.8 541C711.3 541 675.7 541 640 541C604.3 541 568.7 541 533.2 541C497.7 541 462.3 541 426.8 541C391.3 541 355.7 541 320 541C284.3 541 248.7 541 213.2 541C177.7 541 142.3 541 106.8 541C71.3 541 35.7 541 17.8 541L0 541Z" fill="#4facf7"></path><path d="M0 323L17.8 327.3C35.7 331.7 71.3 340.3 106.8 334.7C142.3 329 177.7 309 213.2 298C248.7 287 284.3 285 320 280.5C355.7 276 391.3 269 426.8 270.3C462.3 271.7 497.7 281.3 533.2 291.5C568.7 301.7 604.3 312.3 640 313.8C675.7 315.3 711.3 307.7 746.8 304.5C782.3 301.3 817.7 302.7 853.2 301.3C888.7 300 924.3 296 942.2 294L960 292L960 541L942.2 541C924.3 541 888.7 541 853.2 541C817.7 541 782.3 541 746.8 541C711.3 541 675.7 541 640 541C604.3 541 568.7 541 533.2 541C497.7 541 462.3 541 426.8 541C391.3 541 355.7 541 320 541C284.3 541 248.7 541 213.2 541C177.7 541 142.3 541 106.8 541C71.3 541 35.7 541 17.8 541L0 541Z" fill="#3e9ff1"></path><path d="M0 313L17.8 311C35.7 309 71.3 305 106.8 301.7C142.3 298.3 177.7 295.7 213.2 293.3C248.7 291 284.3 289 320 288.3C355.7 287.7 391.3 288.3 426.8 297.8C462.3 307.3 497.7 325.7 533.2 325.5C568.7 325.3 604.3 306.7 640 299.2C675.7 291.7 711.3 295.3 746.8 305.2C782.3 315 817.7 331 853.2 329.7C888.7 328.3 924.3 309.7 942.2 300.3L960 291L960 541L942.2 541C924.3 541 888.7 541 853.2 541C817.7 541 782.3 541 746.8 541C711.3 541 675.7 541 640 541C604.3 541 568.7 541 533.2 541C497.7 541 462.3 541 426.8 541C391.3 541 355.7 541 320 541C284.3 541 248.7 541 213.2 541C177.7 541 142.3 541 106.8 541C71.3 541 35.7 541 17.8 541L0 541Z" fill="#2e92eb"></path><path d="M0 386L17.8 380.8C35.7 375.7 71.3 365.3 106.8 358.3C142.3 351.3 177.7 347.7 213.2 352.8C248.7 358 284.3 372 320 377.2C355.7 382.3 391.3 378.7 426.8 376.5C462.3 374.3 497.7 373.7 533.2 370.8C568.7 368 604.3 363 640 353.2C675.7 343.3 711.3 328.7 746.8 320.5C782.3 312.3 817.7 310.7 853.2 320.8C888.7 331 924.3 353 942.2 364L960 375L960 541L942.2 541C924.3 541 888.7 541 853.2 541C817.7 541 782.3 541 746.8 541C711.3 541 675.7 541 640 541C604.3 541 568.7 541 533.2 541C497.7 541 462.3 541 426.8 541C391.3 541 355.7 541 320 541C284.3 541 248.7 541 213.2 541C177.7 541 142.3 541 106.8 541C71.3 541 35.7 541 17.8 541L0 541Z" fill="#1e85e4"></path><path d="M0 401L17.8 397.5C35.7 394 71.3 387 106.8 384.7C142.3 382.3 177.7 384.7 213.2 379C248.7 373.3 284.3 359.7 320 361.5C355.7 363.3 391.3 380.7 426.8 389.3C462.3 398 497.7 398 533.2 398.7C568.7 399.3 604.3 400.7 640 396.5C675.7 392.3 711.3 382.7 746.8 381.3C782.3 380 817.7 387 853.2 384C888.7 381 924.3 368 942.2 361.5L960 355L960 541L942.2 541C924.3 541 888.7 541 853.2 541C817.7 541 782.3 541 746.8 541C711.3 541 675.7 541 640 541C604.3 541 568.7 541 533.2 541C497.7 541 462.3 541 426.8 541C391.3 541 355.7 541 320 541C284.3 541 248.7 541 213.2 541C177.7 541 142.3 541 106.8 541C71.3 541 35.7 541 17.8 541L0 541Z" fill="#0e78dd"></path><path d="M0 412L17.8 407C35.7 402 71.3 392 106.8 391.8C142.3 391.7 177.7 401.3 213.2 406.2C248.7 411 284.3 411 320 406C355.7 401 391.3 391 426.8 382.7C462.3 374.3 497.7 367.7 533.2 371.2C568.7 374.7 604.3 388.3 640 396C675.7 403.7 711.3 405.3 746.8 400.2C782.3 395 817.7 383 853.2 381.5C888.7 380 924.3 389 942.2 393.5L960 398L960 541L942.2 541C924.3 541 888.7 541 853.2 541C817.7 541 782.3 541 746.8 541C711.3 541 675.7 541 640 541C604.3 541 568.7 541 533.2 541C497.7 541 462.3 541 426.8 541C391.3 541 355.7 541 320 541C284.3 541 248.7 541 213.2 541C177.7 541 142.3 541 106.8 541C71.3 541 35.7 541 17.8 541L0 541Z" fill="#016bd5"></path><path d="M0 424L17.8 421.2C35.7 418.3 71.3 412.7 106.8 412.5C142.3 412.3 177.7 417.7 213.2 414.5C248.7 411.3 284.3 399.7 320 400.8C355.7 402 391.3 416 426.8 418.7C462.3 421.3 497.7 412.7 533.2 407.7C568.7 402.7 604.3 401.3 640 404.2C675.7 407 711.3 414 746.8 416.2C782.3 418.3 817.7 415.7 853.2 411.3C888.7 407 924.3 401 942.2 398L960 395L960 541L942.2 541C924.3 541 888.7 541 853.2 541C817.7 541 782.3 541 746.8 541C711.3 541 675.7 541 640 541C604.3 541 568.7 541 533.2 541C497.7 541 462.3 541 426.8 541C391.3 541 355.7 541 320 541C284.3 541 248.7 541 213.2 541C177.7 541 142.3 541 106.8 541C71.3 541 35.7 541 17.8 541L0 541Z" fill="#005dcd"></path><path d="M0 405L17.8 408C35.7 411 71.3 417 106.8 417.3C142.3 417.7 177.7 412.3 213.2 414.3C248.7 416.3 284.3 425.7 320 427.3C355.7 429 391.3 423 426.8 419.2C462.3 415.3 497.7 413.7 533.2 413.7C568.7 413.7 604.3 415.3 640 420.3C675.7 425.3 711.3 433.7 746.8 433.5C782.3 433.3 817.7 424.7 853.2 424.8C888.7 425 924.3 434 942.2 438.5L960 443L960 541L942.2 541C924.3 541 888.7 541 853.2 541C817.7 541 782.3 541 746.8 541C711.3 541 675.7 541 640 541C604.3 541 568.7 541 533.2 541C497.7 541 462.3 541 426.8 541C391.3 541 355.7 541 320 541C284.3 541 248.7 541 213.2 541C177.7 541 142.3 541 106.8 541C71.3 541 35.7 541 17.8 541L0 541Z" fill="#004fc3"></path><path d="M0 454L17.8 455C35.7 456 71.3 458 106.8 460.5C142.3 463 177.7 466 213.2 462.3C248.7 458.7 284.3 448.3 320 443C355.7 437.7 391.3 437.3 426.8 438.5C462.3 439.7 497.7 442.3 533.2 445.5C568.7 448.7 604.3 452.3 640 449.8C675.7 447.3 711.3 438.7 746.8 437.5C782.3 436.3 817.7 442.7 853.2 448.5C888.7 454.3 924.3 459.7 942.2 462.3L960 465L960 541L942.2 541C924.3 541 888.7 541 853.2 541C817.7 541 782.3 541 746.8 541C711.3 541 675.7 541 640 541C604.3 541 568.7 541 533.2 541C497.7 541 462.3 541 426.8 541C391.3 541 355.7 541 320 541C284.3 541 248.7 541 213.2 541C177.7 541 142.3 541 106.8 541C71.3 541 35.7 541 17.8 541L0 541Z" fill="#0041b9"></path><path d="M0 453L17.8 454.3C35.7 455.7 71.3 458.3 106.8 463.8C142.3 469.3 177.7 477.7 213.2 481.7C248.7 485.7 284.3 485.3 320 481.8C355.7 478.3 391.3 471.7 426.8 466.8C462.3 462 497.7 459 533.2 462.7C568.7 466.3 604.3 476.7 640 480.7C675.7 484.7 711.3 482.3 746.8 482.3C782.3 482.3 817.7 484.7 853.2 483.8C888.7 483 924.3 479 942.2 477L960 475L960 541L942.2 541C924.3 541 888.7 541 853.2 541C817.7 541 782.3 541 746.8 541C711.3 541 675.7 541 640 541C604.3 541 568.7 541 533.2 541C497.7 541 462.3 541 426.8 541C391.3 541 355.7 541 320 541C284.3 541 248.7 541 213.2 541C177.7 541 142.3 541 106.8 541C71.3 541 35.7 541 17.8 541L0 541Z" fill="#0033af"></path><path d="M0 496L17.8 493.3C35.7 490.7 71.3 485.3 106.8 485.5C142.3 485.7 177.7 491.3 213.2 492.2C248.7 493 284.3 489 320 487.5C355.7 486 391.3 487 426.8 485.7C462.3 484.3 497.7 480.7 533.2 479.7C568.7 478.7 604.3 480.3 640 484C675.7 487.7 711.3 493.3 746.8 495.5C782.3 497.7 817.7 496.3 853.2 495.3C888.7 494.3 924.3 493.7 942.2 493.3L960 493L960 541L942.2 541C924.3 541 888.7 541 853.2 541C817.7 541 782.3 541 746.8 541C711.3 541 675.7 541 640 541C604.3 541 568.7 541 533.2 541C497.7 541 462.3 541 426.8 541C391.3 541 355.7 541 320 541C284.3 541 248.7 541 213.2 541C177.7 541 142.3 541 106.8 541C71.3 541 35.7 541 17.8 541L0 541Z" fill="#0023a4"></path><path d="M0 508L17.8 508.5C35.7 509 71.3 510 106.8 509.2C142.3 508.3 177.7 505.7 213.2 507.3C248.7 509 284.3 515 320 514.7C355.7 514.3 391.3 507.7 426.8 504.7C462.3 501.7 497.7 502.3 533.2 504.2C568.7 506 604.3 509 640 508.3C675.7 507.7 711.3 503.3 746.8 504C782.3 504.7 817.7 510.3 853.2 511C888.7 511.7 924.3 507.3 942.2 505.2L960 503L960 541L942.2 541C924.3 541 888.7 541 853.2 541C817.7 541 782.3 541 746.8 541C711.3 541 675.7 541 640 541C604.3 541 568.7 541 533.2 541C497.7 541 462.3 541 426.8 541C391.3 541 355.7 541 320 541C284.3 541 248.7 541 213.2 541C177.7 541 142.3 541 106.8 541C71.3 541 35.7 541 17.8 541L0 541Z" fill="#000f98"></path></svg>